<?xml version="1.0" encoding="utf-8"?>
<!-- Generator: Adobe Illustrator 23.1.0, SVG Export Plug-In . SVG Version: 6.00 Build 0)  -->
<svg version="1.1" id="Layer_1" xmlns="http://www.w3.org/2000/svg" xmlns:xlink="http://www.w3.org/1999/xlink" x="0px" y="0px"
     viewBox="0 0 141.73 141.73" style="enable-background:new 0 0 141.73 141.73;" xml:space="preserve">
<style type="text/css">
	.st0{fill:#606060;}
	.st1{fill:#010101;}
</style>
    <g>
	<path d="M74.27,11.03c6.43,0,12.86-0.01,19.29-0.01c3.25,0,6.5-0.02,9.75,0.01c3,0.03,6.03-0.16,8.99,0.49
		c0.52,0.12,1.09,0.29,1.39,0.73c0.87,1.24-1.78,2.22-2.45,2.74c-10.78,8.27-22.05,15.95-33.36,23.47
		c-2.31,1.54-4.63,3.05-6.97,4.55c-11.12,7.11-22.61,14.09-34.95,18.92c-1.23,0.48-2.45,0.91-3.71,1.28
		c-1.5,0.43-2.23-0.12-2.26-1.67c-0.04-1.95-0.03-3.89-0.03-5.84c0-11.88-0.04-23.77,0.04-35.65c0.01-1.61,0.4-3.32,1.07-4.78
		c0.49-1.05,1.71-1.78,2.65-2.61c1.8-1.59,4.04-1.62,6.24-1.62C51.39,11.02,62.83,11.04,74.27,11.03z"/>
        <path class="st0" d="M117.6,42.26c0,6.73-0.03,13.46,0.01,20.2c0.02,3.15-1.54,5.17-4.11,6.81c-1.28,0.82-2.53,0.92-3.88,0.92
		c-4.5,0.01-9,0.02-13.5,0.03c-4.43,0.01-8.76,0.56-13.14-0.37c7.34-11.67,14.96-23.16,22.87-34.46c3.56-5.09,7.39-10.04,10.7-15.28
		c0.17-0.26,0.44-0.45,0.67-0.67c0.13,0.31,0.37,0.61,0.38,0.92c0.03,1.58,0,3.16,0,4.74C117.6,30.83,117.6,36.54,117.6,42.26z"/>
        <path d="M115.92,86.86c-13.68,2.2-27.56,2.86-41.4,2.84c-12-0.02-23.98-0.36-35.91-1.68c-1.86-0.21-3.71-0.63-5.55-0.99
		c-0.32-0.06-0.6-0.29-0.9-0.43c0.29-0.21,0.56-0.56,0.88-0.61c2.96-0.43,5.92-0.88,8.89-1.19c4.02-0.42,8.05-0.83,12.09-1.04
		c13.88-0.71,27.9-0.52,41.79,0.03c3.03,0.12,6.09,0.58,9.11,0.84c3.36,0.3,6.71,0.75,10.03,1.36c0.5,0.09,1.13,0.36,1.07,0.86
		C115.97,86.85,115.94,86.85,115.92,86.86z"/>
</g>
    <g>
	<path class="st1" d="M3.44,97.48h11.12v2.6h-3.73v27.13H7.17v-27.13H3.44V97.48z"/>
        <path class="st1" d="M29.16,117.95h-7.44v6.61h3.73v-3.27h3.62v1.44c0,1.69-0.75,2.98-2.24,3.86c-0.7,0.41-1.44,0.62-2.23,0.62
		h-2.18c-1.7,0-2.98-0.83-3.85-2.48c-0.39-0.74-0.59-1.51-0.59-2.31v-11.16c0-1.6,0.79-2.88,2.38-3.84c0.7-0.42,1.43-0.64,2.17-0.64
		h2.06c1.65,0,2.95,0.8,3.91,2.41c0.43,0.72,0.65,1.46,0.65,2.21V117.95z M21.72,115.35h3.73v-5.92h-3.73V115.35z"/>
        <path class="st1" d="M47.36,113.68h-3.7v-4.25H40v15.22h3.66v-4.67h3.7v2.76c0,1.65-0.78,2.96-2.35,3.9
		c-0.71,0.43-1.45,0.65-2.21,0.65h-2.18c-1.64,0-2.9-0.84-3.77-2.51c-0.39-0.74-0.59-1.5-0.59-2.28v-11.16
		c0-1.62,0.77-2.89,2.3-3.84c0.69-0.42,1.42-0.64,2.18-0.64h2.14c1.62,0,2.91,0.8,3.86,2.41c0.42,0.72,0.63,1.45,0.63,2.21V113.68z"
        />
        <path class="st1" d="M58.22,106.79h2.8c1.67,0,2.98,0.76,3.92,2.27c0.42,0.69,0.64,1.42,0.64,2.2v15.95h-3.71v-17.86h-3.66v17.86
		h-3.73V97.56h3.73V106.79z"/>
        <path class="st1" d="M84.02,119.97v2.84c0,1.66-0.79,2.95-2.37,3.86c-0.72,0.41-1.45,0.62-2.19,0.62h-6.54v-5.48h3.73v2.84h3.66
		v-6.62h-2.6c-1.88,0-3.27-0.84-4.17-2.51c-0.41-0.77-0.62-1.6-0.62-2.51v-1.67c0-1.79,0.87-3.1,2.62-3.92
		c0.79-0.37,1.62-0.55,2.48-0.55h5.99v5.52h-3.7v-2.96h-3.66v5.92h2.88c1.62,0,2.9,0.81,3.86,2.43
		C83.81,118.5,84.02,119.23,84.02,119.97z"/>
        <path class="st1" d="M94.87,106.79h2.8c1.67,0,2.98,0.76,3.92,2.27c0.42,0.69,0.64,1.42,0.64,2.2v15.95h-3.71v-17.86h-3.66v17.86
		h-3.73V97.56h3.73V106.79z"/>
        <path class="st1" d="M109.65,122.43v-11.16c0-1.61,0.76-2.89,2.29-3.84c0.69-0.42,1.42-0.64,2.18-0.64h2.15
		c1.65,0,2.95,0.8,3.91,2.41c0.42,0.72,0.64,1.46,0.64,2.21v11.32c0,1.67-0.78,2.96-2.33,3.86c-0.7,0.41-1.44,0.62-2.22,0.62h-2.22
		c-1.63,0-2.89-0.84-3.79-2.52C109.85,123.96,109.65,123.2,109.65,122.43z M113.38,109.43v15.22h3.67v-15.22H113.38z"/>
        <path class="st1" d="M139.11,111.42v11.32c0,1.63-0.77,2.91-2.32,3.84c-0.7,0.42-1.42,0.64-2.17,0.64h-2.88v9.26h-3.57v-25.21
		c0-1.6,0.73-2.87,2.18-3.83c0.67-0.43,1.37-0.65,2.13-0.65h2.14c1.6,0,2.88,0.81,3.85,2.42
		C138.9,109.93,139.11,110.66,139.11,111.42z M131.75,109.43v15.22h3.66v-15.22H131.75z"/>
</g>
</svg>
