<svg width="120" height="32" viewBox="0 0 120 32" fill="none" xmlns="http://www.w3.org/2000/svg">
<path d="M0 30.559V15.2795H11.0352L0 30.559Z" fill="#0029FF"/>
<path d="M11.0352 15.2795V0H22.0704L11.0352 15.2795Z" fill="#0029FF"/>
<path d="M31.4077 -3.8147e-06L31.4077 22.9193L14.8549 22.9192L31.4077 -3.8147e-06Z" fill="#0029FF"/>
<path d="M0 4.24431C0 1.90024 1.90024 0 4.24431 0H11.0352V7.63975H0V4.24431Z" fill="#0029FF"/>
<path d="M23.7681 30.559L23.7681 22.9193L31.4078 22.9193V26.3147C31.4078 28.6588 29.5076 30.559 27.1635 30.559H23.7681Z" fill="#0029FF"/>
<path d="M50.8771 10.35V14.3732H59.2154V17.6891H50.8771V24.8891H46.708V7.03407H60.322V10.35H50.8771Z" fill="black"/>
<path d="M62.1222 5.96277H66.1369V24.8891H62.1222V5.96277Z" fill="black"/>
<path d="M75.7119 25.0932C74.2536 25.0932 72.9411 24.7956 71.7744 24.2005C70.6249 23.5883 69.7242 22.7465 69.0722 21.6752C68.4202 20.6039 68.0943 19.3881 68.0943 18.0277C68.0943 16.6673 68.4202 15.4515 69.0722 14.3802C69.7242 13.3089 70.6249 12.4756 71.7744 11.8804C72.9411 11.2683 74.2536 10.9622 75.7119 10.9622C77.1703 10.9622 78.4742 11.2683 79.6237 11.8804C80.7732 12.4756 81.674 13.3089 82.3259 14.3802C82.9779 15.4515 83.3039 16.6673 83.3039 18.0277C83.3039 19.3881 82.9779 20.6039 82.3259 21.6752C81.674 22.7465 80.7732 23.5883 79.6237 24.2005C78.4742 24.7956 77.1703 25.0932 75.7119 25.0932ZM75.7119 21.8283C76.7413 21.8283 77.582 21.4882 78.234 20.808C78.9031 20.1108 79.2377 19.184 79.2377 18.0277C79.2377 16.8714 78.9031 15.9531 78.234 15.2729C77.582 14.5757 76.7413 14.2271 75.7119 14.2271C74.6825 14.2271 73.8332 14.5757 73.1641 15.2729C72.495 15.9531 72.1604 16.8714 72.1604 18.0277C72.1604 19.184 72.495 20.1108 73.1641 20.808C73.8332 21.4882 74.6825 21.8283 75.7119 21.8283Z" fill="black"/>
<path d="M107.484 11.1662L102.465 24.8891H98.6048L95.4909 16.3697L92.2739 24.8891H88.4136L83.421 11.1662H87.2041L90.4725 20.4509L93.8695 11.1662H97.2666L100.561 20.4509L103.932 11.1662H107.484Z" fill="black"/>
<path d="M120 21.8283V24.8891H108.694V22.4915L114.698 14.2271H108.874V11.1662H119.768V13.5639L113.764 21.8283H120Z" fill="black"/>
</svg>
