<?xml version="1.0" encoding="iso-8859-1"?>
<!-- Generator: Adobe Illustrator 19.0.0, SVG Export Plug-In . SVG Version: 6.00 Build 0)  -->
<svg version="1.1" id="Layer_1" xmlns="http://www.w3.org/2000/svg" xmlns:xlink="http://www.w3.org/1999/xlink" x="0px" y="0px"
	 viewBox="0 0 512 512" style="enable-background:new 0 0 512 512;" xml:space="preserve">
<g>
	<g>
		<path d="M473.053,194.757c0-11.717-9.499-21.215-21.216-21.215h-47.862C419.37,76.189,343.912,0,255.998,0
			C168.374,0,92.523,75.891,108.014,173.541H60.161c-11.717,0-21.216,9.499-21.216,21.215v296.028
			c0,11.717,9.499,21.215,21.216,21.215h391.679h0.001h0.001c11.622,0,21.131-9.421,21.207-21.09c0-0.042,0.006-0.083,0.006-0.126
			C473.053,477.597,473.053,207.852,473.053,194.757z M159.363,469.569h-0.001H81.376V215.972h38.539
			c9.821,26.296,23.969,56.732,39.448,87.143V469.569z M255.998,75.493c41.753,0,75.724,33.969,75.724,75.724
			c0,41.76-33.97,75.736-75.724,75.736c-41.753,0-75.722-33.974-75.722-75.736C180.276,109.463,214.246,75.493,255.998,75.493z
			 M201.792,469.569v-88.173c33.156,57.962,38.386,70.673,54.206,70.673c13.483,0,15.861-3.361,56.289-74.338l89.323,91.838H201.792
			z M430.622,438.541l-72.749-74.797h72.749V438.541z M430.622,321.313h-87.388c17.117-32.545,36.021-70.967,48.859-105.342h38.529
			V321.313z"/>
	</g>
</g>
<g>
</g>
<g>
</g>
<g>
</g>
<g>
</g>
<g>
</g>
<g>
</g>
<g>
</g>
<g>
</g>
<g>
</g>
<g>
</g>
<g>
</g>
<g>
</g>
<g>
</g>
<g>
</g>
<g>
</g>
</svg>
